# xmcd
#
# Track frame offsets:
#	150
#	7900
#	21475
#	32387
#	43400
#	53075
#	67287
#	80637
#	92300
#	105587
#	118625
#	130550
#
# Disc length: 1895 seconds
#
# Revision: 0
# Processed by: cddbd v1.4PL0 Copyright (c) Steve Scherf et al.
# Submitted via: EasyCDDAExtractor 4.6.0.1
#
DISCID=9407650c
DTITLE=George Jones - Jambalaya
DYEAR=1900
DGENRE=Country
TTITLE0=Jambalaya
TTITLE1=Cold, Cold Heart
TTITLE2=Your Tender Years
TTITLE3=Once A Day
TTITLE4=Back In My Baby's Arms Again
TTITLE5=It's Funny What A Fool Will Do
TTITLE6=Hearts In My Dreams
TTITLE7=You Comb Her Hair
TTITLE8=Things Have Gone To Pieces
TTITLE9=When I Wake Up From Dreaming
TTITLE10=I Don't Change Overnight
TTITLE11=Least Of All
EXTD=
EXTT0=
EXTT1=
EXTT2=
EXTT3=
EXTT4=
EXTT5=
EXTT6=
EXTT7=
EXTT8=
EXTT9=
EXTT10=
EXTT11=
PLAYORDER=
